<?xml version="1.0" standalone="no"?>
<!DOCTYPE svg PUBLIC "-//W3C//DTD SVG 20010904//EN"
 "http://www.w3.org/TR/2001/REC-SVG-20010904/DTD/svg10.dtd">
<svg version="1.0" xmlns="http://www.w3.org/2000/svg"
 width="48.000000pt" height="48.000000pt" viewBox="0 0 48.000000 48.000000"
 preserveAspectRatio="xMidYMid meet">

<g transform="translate(0.000000,48.000000) scale(0.100000,-0.100000)"
fill="#000000" stroke="none">
<path d="M58 308 c-17 -32 -14 -117 5 -154 31 -60 114 -114 177 -114 68 0 160
64 180 126 7 20 10 37 8 38 -1 2 -23 10 -48 18 -25 9 -53 19 -62 23 -15 6 -18
2 -18 -27 0 -41 -25 -68 -62 -68 -35 0 -60 31 -57 72 4 68 1 73 -48 91 -60 21
-60 22 -75 -5z"/>
<path d="M225 211 c-6 -11 9 -23 19 -14 9 9 7 23 -3 23 -6 0 -12 -4 -16 -9z"/>
</g>
</svg>
