<?xml version="1.0" encoding="UTF-8"?>
<!DOCTYPE svg PUBLIC "-//W3C//DTD SVG 1.1//EN" "http://www.w3.org/Graphics/SVG/1.1/DTD/svg11.dtd">
<svg xmlns="http://www.w3.org/2000/svg" version="1.1" width="512px" height="513px" style="shape-rendering:geometricPrecision; text-rendering:geometricPrecision; image-rendering:optimizeQuality; fill-rule:evenodd; clip-rule:evenodd" xmlns:xlink="http://www.w3.org/1999/xlink">
<g><path style="opacity:1" fill="#eef5fe" d="M 235.5,-0.5 C 249.5,-0.5 263.5,-0.5 277.5,-0.5C 278.514,0.764682 280.014,1.43135 282,1.5C 289.186,2.16864 296.353,3.00197 303.5,4C 310.284,4.53456 316.951,6.36789 323.5,9.5C 324.167,9.16667 324.833,8.83333 325.5,8.5C 328.488,10.5519 331.821,11.7186 335.5,12C 336.381,12.7083 337.047,13.5416 337.5,14.5C 335.565,13.8505 333.565,13.5172 331.5,13.5C 325.256,10.6504 318.589,8.98377 311.5,8.5C 303.863,5.93916 295.863,4.60582 287.5,4.5C 277.049,2.94228 266.382,2.27561 255.5,2.5C 247.5,2.66667 239.5,2.83333 231.5,3C 226.611,3.35399 221.944,4.18732 217.5,5.5C 213.131,5.46716 208.798,5.80049 204.5,6.5C 209.248,3.4263 214.414,2.4263 220,3.5C 225.273,2.20938 230.44,0.876044 235.5,-0.5 Z"/></g>
<g><path style="opacity:1" fill="#fefefe" d="M 277.5,-0.5 C 355.5,-0.5 433.5,-0.5 511.5,-0.5C 511.5,76.8333 511.5,154.167 511.5,231.5C 510.79,229.107 510.123,226.607 509.5,224C 510.346,218.513 510.346,213.013 509.5,207.5C 508.5,207.5 507.5,207.5 506.5,207.5C 505.743,204.01 504.743,200.677 503.5,197.5C 503.5,197.167 503.5,196.833 503.5,196.5C 501.211,184.306 497.545,172.639 492.5,161.5C 491.868,157.569 490.201,154.235 487.5,151.5C 484.786,142.806 480.786,134.806 475.5,127.5C 469.301,115.766 461.635,105.1 452.5,95.5C 452.5,94.8333 452.167,94.5 451.5,94.5C 445.196,86.8617 438.53,79.5283 431.5,72.5C 430.564,71.0256 429.23,70.0256 427.5,69.5C 422.582,64.3719 417.249,59.7052 411.5,55.5C 405.738,50.113 399.405,45.4463 392.5,41.5C 392.167,41.5 391.833,41.5 391.5,41.5C 380.699,33.0973 368.699,26.764 355.5,22.5C 354.486,21.3263 353.153,20.6596 351.5,20.5C 346.904,18.3025 342.237,16.3025 337.5,14.5C 337.047,13.5416 336.381,12.7083 335.5,12C 331.821,11.7186 328.488,10.5519 325.5,8.5C 324.833,8.83333 324.167,9.16667 323.5,9.5C 316.951,6.36789 310.284,4.53456 303.5,4C 296.353,3.00197 289.186,2.16864 282,1.5C 280.014,1.43135 278.514,0.764682 277.5,-0.5 Z"/></g>
<g><path style="opacity:1" fill="#5f6eca" d="M 287.5,4.5 C 264.151,4.25295 240.818,4.58629 217.5,5.5C 221.944,4.18732 226.611,3.35399 231.5,3C 239.5,2.83333 247.5,2.66667 255.5,2.5C 266.382,2.27561 277.049,2.94228 287.5,4.5 Z"/></g>
<g><path style="opacity:1" fill="#596ff5" d="M 335.5,16.5 C 340.887,17.8468 346.22,19.1801 351.5,20.5C 353.153,20.6596 354.486,21.3263 355.5,22.5C 363.149,26.4969 370.815,30.4969 378.5,34.5C 378.67,35.8221 378.337,36.9887 377.5,38C 379.112,38.7203 380.612,38.5536 382,37.5C 385.052,39.1276 388.218,40.461 391.5,41.5C 391.833,41.5 392.167,41.5 392.5,41.5C 392.489,45.3518 394.489,47.1851 398.5,47C 399.976,49.6432 401.976,51.8099 404.5,53.5C 402.525,54.2752 401.691,55.6086 402,57.5C 404.321,58.3613 405.487,57.3613 405.5,54.5C 407.5,54.8333 409.5,55.1667 411.5,55.5C 411.539,56.5832 411.873,57.5832 412.5,58.5C 417.751,61.9455 422.751,65.6122 427.5,69.5C 429.23,70.0256 430.564,71.0256 431.5,72.5C 437.008,80.6846 443.675,88.0179 451.5,94.5C 452.167,94.5 452.5,94.8333 452.5,95.5C 452.5,98.8333 452.5,102.167 452.5,105.5C 456.931,103.907 459.265,105.573 459.5,110.5C 462.91,110.384 464.244,112.05 463.5,115.5C 464.5,115.5 465.5,115.5 466.5,115.5C 467.083,118.489 468.416,121.155 470.5,123.5C 469.167,124.5 467.833,125.5 466.5,126.5C 467.646,127.719 468.646,129.052 469.5,130.5C 471.111,129.68 471.778,128.346 471.5,126.5C 472.959,126.433 474.292,126.766 475.5,127.5C 475.343,128.873 475.51,130.207 476,131.5C 477.91,134.156 479.41,136.989 480.5,140C 479.437,141.787 478.937,143.621 479,145.5C 480.405,147.191 481.572,149.024 482.5,151C 483.448,151.483 484.448,151.649 485.5,151.5C 484.486,154.874 484.819,158.208 486.5,161.5C 487.167,160.833 487.833,160.167 488.5,159.5C 488.833,160 489.167,160.5 489.5,161C 487.822,162.932 487.322,165.098 488,167.5C 488.833,166.5 489.667,165.5 490.5,164.5C 493.112,173.435 495.779,182.268 498.5,191C 497.552,191.483 496.552,191.649 495.5,191.5C 495.135,196.421 496.135,196.755 498.5,192.5C 499.192,193.025 499.692,193.692 500,194.5C 500.605,200.362 501.772,206.028 503.5,211.5C 503.41,213.228 503.077,214.894 502.5,216.5C 504.383,220.115 504.716,223.948 503.5,228C 503.833,229.833 504.167,231.667 504.5,233.5C 505.192,232.975 505.692,232.308 506,231.5C 507.718,234.278 507.718,236.944 506,239.5C 505.411,237.137 503.911,236.137 501.5,236.5C 503.375,242.334 503.875,248.334 503,254.5C 502.667,254.833 502.333,255.167 502,255.5C 501.667,253.833 501.333,252.167 501,250.5C 500.056,251.263 499.556,252.263 499.5,253.5C 500.012,257.261 500.845,260.928 502,264.5C 503.076,261.64 503.909,258.64 504.5,255.5C 506.349,262.734 506.849,270.067 506,277.5C 506.048,274.432 504.881,272.098 502.5,270.5C 500.717,271.348 500.217,272.681 501,274.5C 501.667,273.167 502.333,273.167 503,274.5C 502.963,278.159 504.129,281.326 506.5,284C 502.279,291.385 501.279,299.218 503.5,307.5C 503.5,308.167 503.5,308.833 503.5,309.5C 502.504,309.586 501.671,309.252 501,308.5C 500.667,310.167 500.333,311.833 500,313.5C 499.683,311.699 499.016,311.366 498,312.5C 497.35,315.819 497.85,318.986 499.5,322C 498.126,327.827 497.126,333.66 496.5,339.5C 496.167,340.833 495.833,342.167 495.5,343.5C 494.5,346.167 493.5,348.833 492.5,351.5C 491.167,351.5 489.833,351.5 488.5,351.5C 487.898,357.499 486.232,363.166 483.5,368.5C 482.271,369.281 480.938,369.781 479.5,370C 480.406,371.699 480.739,373.533 480.5,375.5C 479.624,375.369 478.957,375.702 478.5,376.5C 477.014,378.302 476.014,380.302 475.5,382.5C 474.127,382.343 472.793,382.51 471.5,383C 472.516,383.519 473.182,384.353 473.5,385.5C 473.154,386.849 472.821,388.183 472.5,389.5C 472.5,389.833 472.5,390.167 472.5,390.5C 470.299,390.858 468.965,392.192 468.5,394.5C 467.311,395.429 465.978,395.762 464.5,395.5C 463.551,397.737 462.884,400.071 462.5,402.5C 461.448,402.351 460.448,402.517 459.5,403C 460.38,404.356 460.714,405.856 460.5,407.5C 459.833,408.833 458.833,409.833 457.5,410.5C 453.686,410.651 452.019,412.651 452.5,416.5C 450.857,416.52 449.524,415.853 448.5,414.5C 447.769,416.401 447.769,418.401 448.5,420.5C 444.683,419.982 441.683,421.315 439.5,424.5C 440.682,426.467 440.015,427.8 437.5,428.5C 437.709,429.086 438.043,429.586 438.5,430C 431.946,430.35 429.946,433.183 432.5,438.5C 429.956,438.104 427.789,438.771 426,440.5C 425.586,440.043 425.086,439.709 424.5,439.5C 423.673,441.162 422.507,442.495 421,443.5C 420.506,445.134 420.34,446.801 420.5,448.5C 419.07,448.579 417.736,448.246 416.5,447.5C 415.948,449.003 415.948,450.669 416.5,452.5C 412.849,452.162 411.183,453.828 411.5,457.5C 411.167,457.5 410.833,457.5 410.5,457.5C 408.563,455.674 406.563,455.507 404.5,457C 406.405,457.826 406.739,458.993 405.5,460.5C 403.38,459.128 402.38,459.795 402.5,462.5C 400.175,463.769 397.841,465.102 395.5,466.5C 394.006,466.291 392.839,465.624 392,464.5C 390.837,466.285 390.17,468.285 390,470.5C 388.267,472.602 386.267,472.935 384,471.5C 383.51,472.793 383.343,474.127 383.5,475.5C 379.483,477.347 375.483,479.513 371.5,482C 369.833,482.333 368.167,482.667 366.5,483C 366.833,483.333 367.167,483.667 367.5,484C 364.053,484.269 361.386,485.769 359.5,488.5C 353.364,489.374 347.364,490.707 341.5,492.5C 342.025,493.192 342.692,493.692 343.5,494C 340.774,494.182 338.107,494.682 335.5,495.5C 330.927,497.184 326.593,499.184 322.5,501.5C 319.112,503.118 315.446,504.118 311.5,504.5C 305.824,504.334 300.157,504.501 294.5,505C 289.666,506.731 284.666,507.731 279.5,508C 264.17,508.5 248.837,508.667 233.5,508.5C 218.896,506.222 204.23,503.889 189.5,501.5C 184.072,500.548 178.739,499.214 173.5,497.5C 169.291,494.538 164.624,492.538 159.5,491.5C 157.346,489.252 154.679,487.752 151.5,487C 150.12,485.676 149.786,484.343 150.5,483C 144.022,483.335 138.355,481.169 133.5,476.5C 131.604,475.534 129.604,475.201 127.5,475.5C 127.103,473.338 125.769,472.005 123.5,471.5C 122.652,469.591 122.318,467.591 122.5,465.5C 120.94,465.519 119.44,465.852 118,466.5C 117.684,465.366 116.851,464.366 115.5,463.5C 113.865,464.046 112.199,464.38 110.5,464.5C 108.637,462.139 106.637,459.973 104.5,458C 106.145,456.968 106.478,455.801 105.5,454.5C 103.865,453.319 102.198,453.319 100.5,454.5C 99.9708,451.743 98.9708,449.243 97.5,447C 94.5184,446.502 91.5184,446.335 88.5,446.5C 87.8617,444.54 87.8617,442.707 88.5,441C 85.6642,440.079 82.9976,438.912 80.5,437.5C 74.7605,432.089 69.0938,426.756 63.5,421.5C 60.7997,419.766 58.7997,417.432 57.5,414.5C 58.0048,410.837 56.5048,408.503 53,407.5C 52.654,405.782 52.154,404.115 51.5,402.5C 49.1629,401.483 47.4963,399.816 46.5,397.5C 45.675,396.614 44.675,396.281 43.5,396.5C 43.5,396.167 43.5,395.833 43.5,395.5C 42.1125,391.337 40.4459,387.337 38.5,383.5C 37.5,383.5 36.5,383.5 35.5,383.5C 33.3084,380.45 31.6417,377.117 30.5,373.5C 29.1382,367.142 26.4715,361.475 22.5,356.5C 19.0663,349.876 16.3996,342.876 14.5,335.5C 14.6633,333.143 14.4966,330.81 14,328.5C 11.2898,320.019 8.7898,311.686 6.5,303.5C 4.31449,273.546 3.98116,243.546 5.5,213.5C 5.5,212.833 5.5,212.167 5.5,211.5C 8.19793,207.384 9.19793,202.717 8.5,197.5C 11.4737,189.272 14.6403,180.939 18,172.5C 18.7371,168.13 19.5704,163.796 20.5,159.5C 26.2112,151.588 30.7112,142.921 34,133.5C 35.7219,130.133 37.8886,127.133 40.5,124.5C 42.861,124.326 45.1944,123.993 47.5,123.5C 47.5514,125.57 46.8847,127.403 45.5,129C 46.0104,130.826 46.8438,130.993 48,129.5C 48.3333,130.167 48.6667,130.833 49,131.5C 49.49,130.207 49.6567,128.873 49.5,127.5C 51.5,127.5 53.5,127.5 55.5,127.5C 55.5,125.5 55.5,123.5 55.5,121.5C 51.9853,121.288 48.652,121.288 45.5,121.5C 44.0584,118.213 44.7251,115.38 47.5,113C 50.3323,112.674 52.999,113.174 55.5,114.5C 55.7135,116.144 55.3802,117.644 54.5,119C 57.4816,119.498 60.4816,119.665 63.5,119.5C 63.8266,114.786 63.4933,110.12 62.5,105.5C 61.065,103.599 59.3983,103.266 57.5,104.5C 56.6143,103.675 56.281,102.675 56.5,101.5C 60.8129,94.0205 66.6462,88.0205 74,83.5C 74.3333,83.8333 74.6667,84.1667 75,84.5C 75.5946,83.1011 75.4279,81.7678 74.5,80.5C 76.6049,78.4084 78.2716,76.0751 79.5,73.5C 83.2272,69.7668 87.2272,66.4335 91.5,63.5C 97.2089,59.6433 102.542,55.31 107.5,50.5C 111.302,46.7629 115.635,43.7629 120.5,41.5C 122.801,40.9396 125.134,40.4396 127.5,40C 131.589,37.5874 135.422,34.754 139,31.5C 140.8,30.6805 142.634,30.0138 144.5,29.5C 147.896,28.8023 151.229,28.8023 154.5,29.5C 155.429,28.3112 155.762,26.9778 155.5,25.5C 158.899,27.2145 161.899,26.7145 164.5,24C 162.866,23.5065 161.199,23.3398 159.5,23.5C 159.5,22.5 159.5,21.5 159.5,20.5C 165.093,18.8712 170.76,17.5379 176.5,16.5C 178.857,16.6633 181.19,16.4966 183.5,16C 183.957,15.586 184.291,15.086 184.5,14.5C 190.006,14.1133 195.172,12.78 200,10.5C 199.383,12.0948 199.716,13.4281 201,14.5C 201.914,13.3463 202.747,13.513 203.5,15C 211.298,15.4481 211.298,14.7815 203.5,13C 208.319,9.29787 213.652,7.79787 219.5,8.5C 218.264,9.35669 216.931,10.0234 215.5,10.5C 214.911,12.3733 215.578,14.04 217.5,15.5C 218.598,14.3845 219.765,14.3845 221,15.5C 221.5,15.1667 222,14.8333 222.5,14.5C 220.667,13.0316 220.334,11.3649 221.5,9.5C 222.845,10.3467 223.845,11.5134 224.5,13C 233.346,13.2476 233.346,11.7476 224.5,8.5C 224.167,8.16667 223.833,7.83333 223.5,7.5C 224.167,7.16667 224.833,6.83333 225.5,6.5C 246.142,5.3561 266.809,5.18944 287.5,6C 292.479,6.92279 297.479,7.75612 302.5,8.5C 301.332,9.9056 301.665,11.0723 303.5,12C 305.698,12.3729 307.865,12.8729 310,13.5C 311.412,12.0773 312.579,12.244 313.5,14C 320.808,15.1037 328.142,15.937 335.5,16.5 Z"/></g>
<g><path style="opacity:1" fill="#6470c8" d="M 217.5,5.5 C 211.791,7.50455 205.791,8.50455 199.5,8.5C 201.028,7.69079 202.694,7.02412 204.5,6.5C 208.798,5.80049 213.131,5.46716 217.5,5.5 Z"/></g>
<g><path style="opacity:1" fill="#606fd2" d="M 311.5,8.5 C 318.589,8.98377 325.256,10.6504 331.5,13.5C 327.491,13.1417 323.491,12.6417 319.5,12C 316.591,11.1498 313.924,9.98312 311.5,8.5 Z"/></g>
<g><path style="opacity:1" fill="#5b6fee" d="M 287.5,4.5 C 295.863,4.60582 303.863,5.93916 311.5,8.5C 313.924,9.98312 316.591,11.1498 319.5,12C 323.491,12.6417 327.491,13.1417 331.5,13.5C 332.448,14.9779 333.781,15.9779 335.5,16.5C 328.142,15.937 320.808,15.1037 313.5,14C 312.579,12.244 311.412,12.0773 310,13.5C 307.865,12.8729 305.698,12.3729 303.5,12C 301.665,11.0723 301.332,9.9056 302.5,8.5C 297.479,7.75612 292.479,6.92279 287.5,6C 266.809,5.18944 246.142,5.3561 225.5,6.5C 224.833,6.83333 224.167,7.16667 223.5,7.5C 223.833,7.83333 224.167,8.16667 224.5,8.5C 233.346,11.7476 233.346,13.2476 224.5,13C 223.845,11.5134 222.845,10.3467 221.5,9.5C 220.334,11.3649 220.667,13.0316 222.5,14.5C 222,14.8333 221.5,15.1667 221,15.5C 219.765,14.3845 218.598,14.3845 217.5,15.5C 215.578,14.04 214.911,12.3733 215.5,10.5C 216.931,10.0234 218.264,9.35669 219.5,8.5C 213.652,7.79787 208.319,9.29787 203.5,13C 211.298,14.7815 211.298,15.4481 203.5,15C 202.747,13.513 201.914,13.3463 201,14.5C 199.716,13.4281 199.383,12.0948 200,10.5C 195.172,12.78 190.006,14.1133 184.5,14.5C 184.291,15.086 183.957,15.586 183.5,16C 181.19,16.4966 178.857,16.6633 176.5,16.5C 178.808,15.4422 181.142,14.2755 183.5,13C 189.21,12.3684 194.543,10.8684 199.5,8.5C 205.791,8.50455 211.791,7.50455 217.5,5.5C 240.818,4.58629 264.151,4.25295 287.5,4.5 Z"/></g>
<g><path style="opacity:1" fill="#6871ce" d="M 199.5,8.5 C 194.543,10.8684 189.21,12.3684 183.5,13C 181.142,14.2755 178.808,15.4422 176.5,16.5C 170.76,17.5379 165.093,18.8712 159.5,20.5C 172.2,14.7139 185.534,10.7139 199.5,8.5 Z"/></g>
<g><path style="opacity:1" fill="#6272ce" d="M 331.5,13.5 C 333.565,13.5172 335.565,13.8505 337.5,14.5C 342.237,16.3025 346.904,18.3025 351.5,20.5C 346.22,19.1801 340.887,17.8468 335.5,16.5C 333.781,15.9779 332.448,14.9779 331.5,13.5 Z"/></g>
<g><path style="opacity:1" fill="#5c71e8" d="M 159.5,20.5 C 159.5,21.5 159.5,22.5 159.5,23.5C 161.199,23.3398 162.866,23.5065 164.5,24C 161.899,26.7145 158.899,27.2145 155.5,25.5C 155.762,26.9778 155.429,28.3112 154.5,29.5C 151.229,28.8023 147.896,28.8023 144.5,29.5C 145.551,28.7777 146.218,27.7777 146.5,26.5C 150.381,23.7506 154.715,21.7506 159.5,20.5 Z"/></g>
<g><path style="opacity:1" fill="#5e6ed6" d="M 355.5,22.5 C 368.699,26.764 380.699,33.0973 391.5,41.5C 388.218,40.461 385.052,39.1276 382,37.5C 380.612,38.5536 379.112,38.7203 377.5,38C 378.337,36.9887 378.67,35.8221 378.5,34.5C 370.815,30.4969 363.149,26.4969 355.5,22.5 Z"/></g>
<g><path style="opacity:1" fill="#6170d7" d="M 146.5,26.5 C 146.218,27.7777 145.551,28.7777 144.5,29.5C 142.634,30.0138 140.8,30.6805 139,31.5C 135.422,34.754 131.589,37.5874 127.5,40C 125.134,40.4396 122.801,40.9396 120.5,41.5C 122.401,39.2043 124.734,37.371 127.5,36C 133.545,32.3107 139.879,29.144 146.5,26.5 Z"/></g>
<g><path style="opacity:1" fill="#6672c9" d="M 107.5,50.5 C 102.542,55.31 97.2089,59.6433 91.5,63.5C 96.0912,58.2108 101.424,53.8775 107.5,50.5 Z"/></g>
<g><path style="opacity:1" fill="#5d6fe1" d="M 392.5,41.5 C 399.405,45.4463 405.738,50.113 411.5,55.5C 409.5,55.1667 407.5,54.8333 405.5,54.5C 405.487,57.3613 404.321,58.3613 402,57.5C 401.691,55.6086 402.525,54.2752 404.5,53.5C 401.976,51.8099 399.976,49.6432 398.5,47C 394.489,47.1851 392.489,45.3518 392.5,41.5 Z"/></g>
<g><path style="opacity:1" fill="#5f6ecd" d="M 411.5,55.5 C 417.249,59.7052 422.582,64.3719 427.5,69.5C 422.751,65.6122 417.751,61.9455 412.5,58.5C 411.873,57.5832 411.539,56.5832 411.5,55.5 Z"/></g>
<g><path style="opacity:1" fill="#6673ca" d="M 431.5,72.5 C 438.53,79.5283 445.196,86.8617 451.5,94.5C 443.675,88.0179 437.008,80.6846 431.5,72.5 Z"/></g>
<g><path style="opacity:1" fill="#626fcd" d="M 79.5,73.5 C 78.2716,76.0751 76.6049,78.4084 74.5,80.5C 75.4279,81.7678 75.5946,83.1011 75,84.5C 74.6667,84.1667 74.3333,83.8333 74,83.5C 66.6462,88.0205 60.8129,94.0205 56.5,101.5C 54.1975,103.978 52.0308,106.645 50,109.5C 49.3292,110.252 48.4959,110.586 47.5,110.5C 56.7012,96.9607 67.3679,84.6274 79.5,73.5 Z"/></g>
<g><path style="opacity:1" fill="#6071e1" d="M 452.5,95.5 C 461.635,105.1 469.301,115.766 475.5,127.5C 474.292,126.766 472.959,126.433 471.5,126.5C 471.778,128.346 471.111,129.68 469.5,130.5C 468.646,129.052 467.646,127.719 466.5,126.5C 467.833,125.5 469.167,124.5 470.5,123.5C 468.416,121.155 467.083,118.489 466.5,115.5C 465.5,115.5 464.5,115.5 463.5,115.5C 464.244,112.05 462.91,110.384 459.5,110.5C 459.265,105.573 456.931,103.907 452.5,105.5C 452.5,102.167 452.5,98.8333 452.5,95.5 Z"/></g>
<g><path style="opacity:1" fill="#5970ef" d="M 56.5,101.5 C 56.281,102.675 56.6143,103.675 57.5,104.5C 59.3983,103.266 61.065,103.599 62.5,105.5C 63.4933,110.12 63.8266,114.786 63.5,119.5C 60.4816,119.665 57.4816,119.498 54.5,119C 55.3802,117.644 55.7135,116.144 55.5,114.5C 52.999,113.174 50.3323,112.674 47.5,113C 44.7251,115.38 44.0584,118.213 45.5,121.5C 48.652,121.288 51.9853,121.288 55.5,121.5C 55.5,123.5 55.5,125.5 55.5,127.5C 53.5,127.5 51.5,127.5 49.5,127.5C 49.6567,128.873 49.49,130.207 49,131.5C 48.6667,130.833 48.3333,130.167 48,129.5C 46.8438,130.993 46.0104,130.826 45.5,129C 46.8847,127.403 47.5514,125.57 47.5,123.5C 45.1944,123.993 42.861,124.326 40.5,124.5C 40.8333,123.167 41.1667,121.833 41.5,120.5C 43.0751,116.922 45.0751,113.589 47.5,110.5C 48.4959,110.586 49.3292,110.252 50,109.5C 52.0308,106.645 54.1975,103.978 56.5,101.5 Z"/></g>
<g><path style="opacity:1" fill="#576fec" d="M 355.5,130.5 C 290.167,130.5 224.833,130.5 159.5,130.5C 159.881,129.069 160.881,128.236 162.5,128C 166.333,127.833 170.167,127.667 174,127.5C 230.67,127.621 287.337,127.621 344,127.5C 347.167,127.667 350.333,127.833 353.5,128C 354.756,128.417 355.423,129.25 355.5,130.5 Z"/></g>
<g><path style="opacity:1" fill="#6a7acf" d="M 159.5,130.5 C 224.833,130.5 290.167,130.5 355.5,130.5C 356.167,130.5 356.833,130.5 357.5,130.5C 359.476,132.011 361.809,132.844 364.5,133C 366.464,134.451 367.797,136.284 368.5,138.5C 363.604,134.42 357.937,132.087 351.5,131.5C 286.166,131.333 220.832,131.5 155.5,132C 154.584,132.278 153.918,132.778 153.5,133.5C 152.041,133.433 150.708,133.766 149.5,134.5C 151.801,131.082 155.134,129.749 159.5,130.5 Z"/></g>
<g><path style="opacity:1" fill="#ebf3fe" d="M 351.5,131.5 C 285.646,132.18 219.646,132.847 153.5,133.5C 153.918,132.778 154.584,132.278 155.5,132C 220.832,131.5 286.166,131.333 351.5,131.5 Z"/></g>
<g><path style="opacity:1" fill="#f2f2f3" d="M 351.5,131.5 C 357.937,132.087 363.604,134.42 368.5,138.5C 372.284,142.242 374.951,146.576 376.5,151.5C 377.66,217.459 377.826,283.459 377,349.5C 374.969,357.681 370.469,364.014 363.5,368.5C 361.304,368.41 359.137,368.077 357,367.5C 354.882,368.476 352.715,369.31 350.5,370C 333.833,370.333 317.167,370.667 300.5,371C 299.263,371.232 298.263,371.732 297.5,372.5C 296.508,372.328 295.842,372.662 295.5,373.5C 293.167,376.167 290.833,378.833 288.5,381.5C 288.167,381.5 287.833,381.5 287.5,381.5C 286.577,380.697 285.577,380.53 284.5,381C 280.395,386.727 275.395,391.56 269.5,395.5C 267.095,397.642 265.762,400.309 265.5,403.5C 262.121,406.551 258.788,409.551 255.5,412.5C 255.167,411.833 254.833,411.167 254.5,410.5C 254.918,409.778 255.584,409.278 256.5,409C 244.812,397.978 233.478,386.645 222.5,375C 222.667,374.5 222.833,374 223,373.5C 225.518,375.028 227.685,374.694 229.5,372.5C 228.327,369.721 226.493,369.054 224,370.5C 220.615,368.306 217.115,367.306 213.5,367.5C 212.977,368.804 211.643,369.471 209.5,369.5C 208.006,369.291 206.839,368.624 206,367.5C 192.1,367.591 177.767,367.591 163,367.5C 162.241,368.646 161.574,369.646 161,370.5C 157.009,369.836 153.176,368.669 149.5,367C 145.426,363.376 141.926,359.21 139,354.5C 138.823,286.138 138.323,217.805 137.5,149.5C 138.167,147.5 138.833,145.5 139.5,143.5C 142.185,139.817 145.518,136.817 149.5,134.5C 150.708,133.766 152.041,133.433 153.5,133.5C 219.646,132.847 285.646,132.18 351.5,131.5 Z"/></g>
<g><path style="opacity:1" fill="#6371cb" d="M 41.5,120.5 C 41.1667,121.833 40.8333,123.167 40.5,124.5C 37.8886,127.133 35.7219,130.133 34,133.5C 30.7112,142.921 26.2112,151.588 20.5,159.5C 25.7087,145.408 32.7087,132.408 41.5,120.5 Z"/></g>
<g><path style="opacity:1" fill="#6774cd" d="M 487.5,151.5 C 490.201,154.235 491.868,157.569 492.5,161.5C 489.413,158.965 487.746,155.632 487.5,151.5 Z"/></g>
<g><path style="opacity:1" fill="#e8eafb" d="M 137.5,149.5 C 138.323,217.805 138.823,286.138 139,354.5C 141.926,359.21 145.426,363.376 149.5,367C 153.176,368.669 157.009,369.836 161,370.5C 161.574,369.646 162.241,368.646 163,367.5C 177.767,367.591 192.1,367.591 206,367.5C 206.839,368.624 208.006,369.291 209.5,369.5C 211.643,369.471 212.977,368.804 213.5,367.5C 217.115,367.306 220.615,368.306 224,370.5C 226.493,369.054 228.327,369.721 229.5,372.5C 227.685,374.694 225.518,375.028 223,373.5C 222.833,374 222.667,374.5 222.5,375C 233.478,386.645 244.812,397.978 256.5,409C 255.584,409.278 254.918,409.778 254.5,410.5C 242.833,399.167 231.167,387.833 219.5,376.5C 219.19,374.856 218.19,373.856 216.5,373.5C 197.004,372.668 177.338,372.168 157.5,372C 150.541,370.524 144.874,367.024 140.5,361.5C 139.269,358.039 137.769,354.706 136,351.5C 135.333,285.167 135.333,218.833 136,152.5C 136.232,151.263 136.732,150.263 137.5,149.5 Z"/></g>
<g><path style="opacity:1" fill="#5362c3" d="M 139.5,143.5 C 138.833,145.5 138.167,147.5 137.5,149.5C 136.732,150.263 136.232,151.263 136,152.5C 135.333,218.833 135.333,285.167 136,351.5C 137.769,354.706 139.269,358.039 140.5,361.5C 138.833,361.5 137.167,361.5 135.5,361.5C 135.296,358.482 134.963,355.482 134.5,352.5C 134.5,287.167 134.5,221.833 134.5,156.5C 134.586,152.143 134.92,147.81 135.5,143.5C 136.833,143.5 138.167,143.5 139.5,143.5 Z"/></g>
<g><path style="opacity:1" fill="#4e62c5" d="M 376.5,151.5 C 377.117,151.611 377.617,151.944 378,152.5C 378.5,218.499 378.667,284.499 378.5,350.5C 376.92,354.715 375.586,359.048 374.5,363.5C 371.487,366.838 367.82,368.838 363.5,369.5C 363.5,369.167 363.5,368.833 363.5,368.5C 370.469,364.014 374.969,357.681 377,349.5C 377.826,283.459 377.66,217.459 376.5,151.5 Z"/></g>
<g><path style="opacity:1" fill="#6270cd" d="M 20.5,159.5 C 19.5704,163.796 18.7371,168.13 18,172.5C 14.6403,180.939 11.4737,189.272 8.5,197.5C 11.1259,184.294 15.1259,171.627 20.5,159.5 Z"/></g>
<g><path style="opacity:1" fill="#6572d0" d="M 492.5,161.5 C 497.545,172.639 501.211,184.306 503.5,196.5C 502.21,195.942 501.377,194.942 501,193.5C 500.767,186.475 498.767,180.141 495,174.5C 494.147,170.143 493.313,165.809 492.5,161.5 Z"/></g>
<g><path style="opacity:1" fill="#7686d1" d="M 263.5,176.5 C 260.833,176.5 258.167,176.5 255.5,176.5C 253.473,176.338 251.473,176.505 249.5,177C 245.589,178.791 241.589,180.291 237.5,181.5C 240.546,178.643 244.213,176.81 248.5,176C 253.684,175.184 258.684,175.35 263.5,176.5 Z"/></g>
<g><path style="opacity:1" fill="#5d6dd2" d="M 255.5,176.5 C 258.167,176.5 260.833,176.5 263.5,176.5C 268.718,176.748 273.051,178.748 276.5,182.5C 269.637,179.968 262.637,177.968 255.5,176.5 Z"/></g>
<g><path style="opacity:1" fill="#596ff5" d="M 255.5,176.5 C 262.637,177.968 269.637,179.968 276.5,182.5C 278.027,182.427 279.027,183.094 279.5,184.5C 280.031,186.544 281.198,188.211 283,189.5C 283.494,191.134 283.66,192.801 283.5,194.5C 284.675,194.281 285.675,194.614 286.5,195.5C 291.527,206.352 291.694,217.352 287,228.5C 285.887,229.305 284.721,229.972 283.5,230.5C 280.737,230.94 279.737,232.273 280.5,234.5C 278.833,235.167 277.167,235.833 275.5,236.5C 275.709,237.086 276.043,237.586 276.5,238C 270.259,242.033 263.426,244.533 256,245.5C 253.183,244.969 250.35,244.636 247.5,244.5C 244.833,244.167 242.167,243.833 239.5,243.5C 238.281,239.62 235.615,237.62 231.5,237.5C 227.778,232.015 224.945,226.015 223,219.5C 221.065,209.381 222.731,200.047 228,191.5C 231.371,188.297 234.538,184.964 237.5,181.5C 241.589,180.291 245.589,178.791 249.5,177C 251.473,176.505 253.473,176.338 255.5,176.5 Z"/></g>
<g><path style="opacity:1" fill="#717cd3" d="M 8.5,197.5 C 9.19793,202.717 8.19793,207.384 5.5,211.5C 6.0099,206.609 7.0099,201.942 8.5,197.5 Z"/></g>
<g><path style="opacity:1" fill="#606fd1" d="M 279.5,184.5 C 291.195,194.257 295.029,206.59 291,221.5C 290.015,226.815 287.515,231.148 283.5,234.5C 283.5,233.167 283.5,231.833 283.5,230.5C 284.721,229.972 285.887,229.305 287,228.5C 291.694,217.352 291.527,206.352 286.5,195.5C 285.675,194.614 284.675,194.281 283.5,194.5C 283.66,192.801 283.494,191.134 283,189.5C 281.198,188.211 280.031,186.544 279.5,184.5 Z"/></g>
<g><path style="opacity:1" fill="#616ecc" d="M 237.5,181.5 C 234.538,184.964 231.371,188.297 228,191.5C 222.731,200.047 221.065,209.381 223,219.5C 224.945,226.015 227.778,232.015 231.5,237.5C 221.875,227.9 218.375,216.233 221,202.5C 223.816,193.206 229.316,186.206 237.5,181.5 Z"/></g>
<g><path style="opacity:1" fill="#596eed" d="M 134.5,156.5 C 134.5,221.833 134.5,287.167 134.5,352.5C 133.883,352.389 133.383,352.056 133,351.5C 132.333,287.5 132.333,223.5 133,159.5C 133.232,158.263 133.732,157.263 134.5,156.5 Z"/></g>
<g><path style="opacity:1" fill="#6373d1" d="M 231.5,237.5 C 235.615,237.62 238.281,239.62 239.5,243.5C 236.467,241.984 233.8,239.984 231.5,237.5 Z"/></g>
<g><path style="opacity:1" fill="#5c71e8" d="M 283.5,230.5 C 283.5,231.833 283.5,233.167 283.5,234.5C 281.208,239.15 277.542,242.15 272.5,243.5C 267.481,245.647 262.148,246.647 256.5,246.5C 253.833,246.333 251.167,246.167 248.5,246C 247.944,245.617 247.611,245.117 247.5,244.5C 250.35,244.636 253.183,244.969 256,245.5C 263.426,244.533 270.259,242.033 276.5,238C 276.043,237.586 275.709,237.086 275.5,236.5C 277.167,235.833 278.833,235.167 280.5,234.5C 279.737,232.273 280.737,230.94 283.5,230.5 Z"/></g>
<g><path style="opacity:1" fill="#5a6fee" d="M 475.5,127.5 C 480.786,134.806 484.786,142.806 487.5,151.5C 487.746,155.632 489.413,158.965 492.5,161.5C 493.313,165.809 494.147,170.143 495,174.5C 498.767,180.141 500.767,186.475 501,193.5C 501.377,194.942 502.21,195.942 503.5,196.5C 503.5,196.833 503.5,197.167 503.5,197.5C 503.686,209.136 505.186,220.469 508,231.5C 508.829,251.189 508.496,270.856 507,290.5C 506.333,291.833 505.667,293.167 505,294.5C 504.825,299.019 504.325,303.353 503.5,307.5C 501.279,299.218 502.279,291.385 506.5,284C 504.129,281.326 502.963,278.159 503,274.5C 502.333,273.167 501.667,273.167 501,274.5C 500.217,272.681 500.717,271.348 502.5,270.5C 504.881,272.098 506.048,274.432 506,277.5C 506.849,270.067 506.349,262.734 504.5,255.5C 503.909,258.64 503.076,261.64 502,264.5C 500.845,260.928 500.012,257.261 499.5,253.5C 499.556,252.263 500.056,251.263 501,250.5C 501.333,252.167 501.667,253.833 502,255.5C 502.333,255.167 502.667,254.833 503,254.5C 503.875,248.334 503.375,242.334 501.5,236.5C 503.911,236.137 505.411,237.137 506,239.5C 507.718,236.944 507.718,234.278 506,231.5C 505.692,232.308 505.192,232.975 504.5,233.5C 504.167,231.667 503.833,229.833 503.5,228C 504.716,223.948 504.383,220.115 502.5,216.5C 503.077,214.894 503.41,213.228 503.5,211.5C 501.772,206.028 500.605,200.362 500,194.5C 499.692,193.692 499.192,193.025 498.5,192.5C 496.135,196.755 495.135,196.421 495.5,191.5C 496.552,191.649 497.552,191.483 498.5,191C 495.779,182.268 493.112,173.435 490.5,164.5C 489.667,165.5 488.833,166.5 488,167.5C 487.322,165.098 487.822,162.932 489.5,161C 489.167,160.5 488.833,160 488.5,159.5C 487.833,160.167 487.167,160.833 486.5,161.5C 484.819,158.208 484.486,154.874 485.5,151.5C 484.448,151.649 483.448,151.483 482.5,151C 481.572,149.024 480.405,147.191 479,145.5C 478.937,143.621 479.437,141.787 480.5,140C 479.41,136.989 477.91,134.156 476,131.5C 475.51,130.207 475.343,128.873 475.5,127.5 Z"/></g>
<g><path style="opacity:1" fill="#6270c8" d="M 239.5,243.5 C 242.167,243.833 244.833,244.167 247.5,244.5C 247.611,245.117 247.944,245.617 248.5,246C 251.167,246.167 253.833,246.333 256.5,246.5C 262.148,246.647 267.481,245.647 272.5,243.5C 267.806,246.893 262.473,248.227 256.5,247.5C 250.242,248.182 244.575,246.848 239.5,243.5 Z"/></g>
<g><path style="opacity:1" fill="#5d6cd1" d="M 5.5,213.5 C 3.98116,243.546 4.31449,273.546 6.5,303.5C 3.29908,286.961 1.96574,270.128 2.5,253C 2.66667,244.833 2.83333,236.667 3,228.5C 3.43669,223.294 4.27002,218.294 5.5,213.5 Z"/></g>
<g><path style="opacity:1" fill="#596ff4" d="M 279.5,268.5 C 279.611,269.117 279.944,269.617 280.5,270C 282.833,270.333 285.167,270.667 287.5,271C 295.841,273.838 304.174,276.672 312.5,279.5C 313.532,283.528 316.199,285.362 320.5,285C 321.227,286.399 321.727,287.899 322,289.5C 323.049,288.483 324.216,288.316 325.5,289C 328.704,292.036 331.704,295.203 334.5,298.5C 334.5,304.5 334.5,310.5 334.5,316.5C 282.5,316.5 230.5,316.5 178.5,316.5C 178.5,312.833 178.5,309.167 178.5,305.5C 178.5,302.833 178.5,300.167 178.5,297.5C 182.3,295.037 184.967,291.704 186.5,287.5C 186.833,287.5 187.167,287.5 187.5,287.5C 195.084,282.976 202.75,278.643 210.5,274.5C 215.165,273.943 219.498,272.61 223.5,270.5C 234.516,269.248 245.516,267.915 256.5,266.5C 264.182,267.058 271.848,267.725 279.5,268.5 Z"/></g>
<g><path style="opacity:1" fill="#bac5f0" d="M 279.5,268.5 C 279.5,268.167 279.5,267.833 279.5,267.5C 282.152,267.41 284.485,268.076 286.5,269.5C 284.139,269.326 281.806,268.993 279.5,268.5 Z"/></g>
<g><path style="opacity:1" fill="#6572ce" d="M 279.5,267.5 C 279.5,267.833 279.5,268.167 279.5,268.5C 271.848,267.725 264.182,267.058 256.5,266.5C 245.516,267.915 234.516,269.248 223.5,270.5C 241.777,265.051 260.443,264.051 279.5,267.5 Z"/></g>
<g><path style="opacity:1" fill="#5d73ed" d="M 378.5,350.5 C 378.667,284.499 378.5,218.499 378,152.5C 377.617,151.944 377.117,151.611 376.5,151.5C 374.951,146.576 372.284,142.242 368.5,138.5C 367.797,136.284 366.464,134.451 364.5,133C 361.809,132.844 359.476,132.011 357.5,130.5C 358.922,130.25 359.922,129.417 360.5,128C 363.5,127.333 366.5,127.333 369.5,128C 367.941,128.98 366.274,129.813 364.5,130.5C 368.172,134.525 371.839,138.525 375.5,142.5C 377.258,141.872 378.758,140.872 380,139.5C 380.121,142.771 378.954,145.605 376.5,148C 378.69,151.369 380.856,151.202 383,147.5C 383.667,151.167 383.667,154.833 383,158.5C 381.989,157.663 380.822,157.33 379.5,157.5C 379.832,222.002 379.499,286.335 378.5,350.5 Z"/></g>
<g><path style="opacity:1" fill="#6c76cc" d="M 223.5,270.5 C 219.498,272.61 215.165,273.943 210.5,274.5C 214.502,272.39 218.835,271.057 223.5,270.5 Z"/></g>
<g><path style="opacity:1" fill="#5f6ed0" d="M 279.5,268.5 C 281.806,268.993 284.139,269.326 286.5,269.5C 289.733,270.609 293.066,271.442 296.5,272C 302.184,274.046 307.517,276.546 312.5,279.5C 304.174,276.672 295.841,273.838 287.5,271C 285.167,270.667 282.833,270.333 280.5,270C 279.944,269.617 279.611,269.117 279.5,268.5 Z"/></g>
<g><path style="opacity:1" fill="#fdfefe" d="M -0.5,-0.5 C 78.1667,-0.5 156.833,-0.5 235.5,-0.5C 230.44,0.876044 225.273,2.20938 220,3.5C 214.414,2.4263 209.248,3.4263 204.5,6.5C 202.694,7.02412 201.028,7.69079 199.5,8.5C 185.534,10.7139 172.2,14.7139 159.5,20.5C 154.715,21.7506 150.381,23.7506 146.5,26.5C 139.879,29.144 133.545,32.3107 127.5,36C 124.734,37.371 122.401,39.2043 120.5,41.5C 115.635,43.7629 111.302,46.7629 107.5,50.5C 101.424,53.8775 96.0912,58.2108 91.5,63.5C 87.2272,66.4335 83.2272,69.7668 79.5,73.5C 67.3679,84.6274 56.7012,96.9607 47.5,110.5C 45.0751,113.589 43.0751,116.922 41.5,120.5C 32.7087,132.408 25.7087,145.408 20.5,159.5C 15.1259,171.627 11.1259,184.294 8.5,197.5C 7.0099,201.942 6.0099,206.609 5.5,211.5C 5.5,212.167 5.5,212.833 5.5,213.5C 4.27002,218.294 3.43669,223.294 3,228.5C 2.83333,236.667 2.66667,244.833 2.5,253C 1.96574,270.128 3.29908,286.961 6.5,303.5C 7.94343,314.607 10.6101,325.274 14.5,335.5C 16.3996,342.876 19.0663,349.876 22.5,356.5C 24.3782,362.587 27.0448,368.254 30.5,373.5C 31.6417,377.117 33.3084,380.45 35.5,383.5C 37.6837,387.881 40.3504,391.881 43.5,395.5C 43.5,395.833 43.5,396.167 43.5,396.5C 47.8154,402.81 52.4821,408.81 57.5,414.5C 58.7997,417.432 60.7997,419.766 63.5,421.5C 69.1305,428.798 75.4639,435.465 82.5,441.5C 91.0886,450.12 100.422,457.787 110.5,464.5C 115.648,468.911 121.314,472.578 127.5,475.5C 132.768,479.476 138.434,482.976 144.5,486C 149.33,488.42 154.33,490.254 159.5,491.5C 163.644,494.446 168.311,496.446 173.5,497.5C 178.739,499.214 184.072,500.548 189.5,501.5C 203.683,506.088 218.35,508.755 233.5,509.5C 259.867,511.689 285.867,510.023 311.5,504.5C 315.446,504.118 319.112,503.118 322.5,501.5C 330.615,499.852 338.615,497.686 346.5,495C 351.156,493.294 355.49,491.127 359.5,488.5C 369.702,484.732 379.369,479.899 388.5,474C 396.583,469.406 403.916,463.906 410.5,457.5C 410.833,457.5 411.167,457.5 411.5,457.5C 419.108,451.859 426.108,445.525 432.5,438.5C 442.311,430.363 450.644,421.03 457.5,410.5C 458.833,409.833 459.833,408.833 460.5,407.5C 464.733,402.046 468.733,396.38 472.5,390.5C 472.5,390.167 472.5,389.833 472.5,389.5C 476.174,385.493 478.841,380.827 480.5,375.5C 485.439,368.047 489.439,360.047 492.5,351.5C 493.5,348.833 494.5,346.167 495.5,343.5C 497.048,343.179 497.715,342.179 497.5,340.5C 498.5,340.5 499.5,340.5 500.5,340.5C 502.23,334.295 503.563,327.961 504.5,321.5C 504.709,320.006 505.376,318.839 506.5,318C 505.833,317.667 505.167,317.333 504.5,317C 507.343,314.644 508.01,311.811 506.5,308.5C 507.556,302.55 509.223,296.883 511.5,291.5C 511.5,365.167 511.5,438.833 511.5,512.5C 340.833,512.5 170.167,512.5 -0.5,512.5C -0.5,341.5 -0.5,170.5 -0.5,-0.5 Z"/></g>
<g><path style="opacity:1" fill="#616ec8" d="M 210.5,274.5 C 202.75,278.643 195.084,282.976 187.5,287.5C 194.055,281.384 201.721,277.051 210.5,274.5 Z"/></g>
<g><path style="opacity:1" fill="#5e6ed6" d="M 312.5,279.5 C 321.18,282.499 328.18,287.833 333.5,295.5C 334.11,296.391 334.443,297.391 334.5,298.5C 331.704,295.203 328.704,292.036 325.5,289C 324.216,288.316 323.049,288.483 322,289.5C 321.727,287.899 321.227,286.399 320.5,285C 316.199,285.362 313.532,283.528 312.5,279.5 Z"/></g>
<g><path style="opacity:1" fill="#eff7fe" d="M 506.5,207.5 C 507.5,207.5 508.5,207.5 509.5,207.5C 510.346,213.013 510.346,218.513 509.5,224C 510.123,226.607 510.79,229.107 511.5,231.5C 511.5,251.5 511.5,271.5 511.5,291.5C 509.223,296.883 507.556,302.55 506.5,308.5C 508.01,311.811 507.343,314.644 504.5,317C 505.167,317.333 505.833,317.667 506.5,318C 505.376,318.839 504.709,320.006 504.5,321.5C 503.563,327.961 502.23,334.295 500.5,340.5C 499.5,340.5 498.5,340.5 497.5,340.5C 497.715,342.179 497.048,343.179 495.5,343.5C 495.833,342.167 496.167,340.833 496.5,339.5C 499.075,333.101 501.075,326.434 502.5,319.5C 511.469,282.584 512.802,245.251 506.5,207.5 Z"/></g>
<g><path style="opacity:1" fill="#5f6eca" d="M 186.5,287.5 C 184.967,291.704 182.3,295.037 178.5,297.5C 178.733,295.938 179.4,294.605 180.5,293.5C 182.5,291.5 184.5,289.5 186.5,287.5 Z"/></g>
<g><path style="opacity:1" fill="#6875d0" d="M 503.5,197.5 C 504.743,200.677 505.743,204.01 506.5,207.5C 512.802,245.251 511.469,282.584 502.5,319.5C 502.616,316.14 502.949,312.807 503.5,309.5C 503.5,308.833 503.5,308.167 503.5,307.5C 504.325,303.353 504.825,299.019 505,294.5C 505.667,293.167 506.333,291.833 507,290.5C 508.496,270.856 508.829,251.189 508,231.5C 505.186,220.469 503.686,209.136 503.5,197.5 Z"/></g>
<g><path style="opacity:1" fill="#5c70e7" d="M 503.5,309.5 C 502.949,312.807 502.616,316.14 502.5,319.5C 501.075,326.434 499.075,333.101 496.5,339.5C 497.126,333.66 498.126,327.827 499.5,322C 497.85,318.986 497.35,315.819 498,312.5C 499.016,311.366 499.683,311.699 500,313.5C 500.333,311.833 500.667,310.167 501,308.5C 501.671,309.252 502.504,309.586 503.5,309.5 Z"/></g>
<g><path style="opacity:1" fill="#5a6ac6" d="M 6.5,303.5 C 8.7898,311.686 11.2898,320.019 14,328.5C 14.4966,330.81 14.6633,333.143 14.5,335.5C 10.6101,325.274 7.94343,314.607 6.5,303.5 Z"/></g>
<g><path style="opacity:1" fill="#dce3fe" d="M 180.5,293.5 C 179.4,294.605 178.733,295.938 178.5,297.5C 177.732,298.263 177.232,299.263 177,300.5C 176.501,306.491 176.334,312.491 176.5,318.5C 229.833,318.5 283.167,318.5 336.5,318.5C 336.823,312.31 336.49,306.31 335.5,300.5C 335.672,299.508 335.338,298.842 334.5,298.5C 334.443,297.391 334.11,296.391 333.5,295.5C 337.07,296.585 339.07,299.085 339.5,303C 338.927,308.727 338.26,314.393 337.5,320C 283.5,320.667 229.5,320.667 175.5,320C 174.355,313.248 174.189,306.414 175,299.5C 176.252,297.999 177.252,296.332 178,294.5C 178.671,293.748 179.504,293.414 180.5,293.5 Z"/></g>
<g><path style="opacity:1" fill="#5064c3" d="M 178.5,297.5 C 178.5,300.167 178.5,302.833 178.5,305.5C 177.517,309.298 177.183,313.298 177.5,317.5C 230.167,317.5 282.833,317.5 335.5,317.5C 335.5,311.833 335.5,306.167 335.5,300.5C 336.49,306.31 336.823,312.31 336.5,318.5C 283.167,318.5 229.833,318.5 176.5,318.5C 176.334,312.491 176.501,306.491 177,300.5C 177.232,299.263 177.732,298.263 178.5,297.5 Z"/></g>
<g><path style="opacity:1" fill="#5e72e8" d="M 334.5,298.5 C 335.338,298.842 335.672,299.508 335.5,300.5C 335.5,306.167 335.5,311.833 335.5,317.5C 282.833,317.5 230.167,317.5 177.5,317.5C 177.183,313.298 177.517,309.298 178.5,305.5C 178.5,309.167 178.5,312.833 178.5,316.5C 230.5,316.5 282.5,316.5 334.5,316.5C 334.5,310.5 334.5,304.5 334.5,298.5 Z"/></g>
<g><path style="opacity:1" fill="#606fd5" d="M 492.5,351.5 C 489.439,360.047 485.439,368.047 480.5,375.5C 480.739,373.533 480.406,371.699 479.5,370C 480.938,369.781 482.271,369.281 483.5,368.5C 486.232,363.166 487.898,357.499 488.5,351.5C 489.833,351.5 491.167,351.5 492.5,351.5 Z"/></g>
<g><path style="opacity:1" fill="#5b6bc6" d="M 22.5,356.5 C 26.4715,361.475 29.1382,367.142 30.5,373.5C 27.0448,368.254 24.3782,362.587 22.5,356.5 Z"/></g>
<g><path style="opacity:1" fill="#ebf2fd" d="M 363.5,368.5 C 363.5,368.833 363.5,369.167 363.5,369.5C 360.821,370.226 358.154,371.059 355.5,372C 336.17,372.5 316.836,372.667 297.5,372.5C 298.263,371.732 299.263,371.232 300.5,371C 317.167,370.667 333.833,370.333 350.5,370C 352.715,369.31 354.882,368.476 357,367.5C 359.137,368.077 361.304,368.41 363.5,368.5 Z"/></g>
<g><path style="opacity:1" fill="#6474be" d="M 140.5,361.5 C 144.874,367.024 150.541,370.524 157.5,372C 177.338,372.168 197.004,372.668 216.5,373.5C 196.497,373.667 176.497,373.5 156.5,373C 152.744,372.068 149.077,370.901 145.5,369.5C 143.472,367.122 141.805,364.455 140.5,361.5 Z"/></g>
<g><path style="opacity:1" fill="#616db4" d="M 363.5,369.5 C 362.41,370.857 361.076,371.857 359.5,372.5C 338.212,373.478 316.879,373.811 295.5,373.5C 295.842,372.662 296.508,372.328 297.5,372.5C 316.836,372.667 336.17,372.5 355.5,372C 358.154,371.059 360.821,370.226 363.5,369.5 Z"/></g>
<g><path style="opacity:1" fill="#5d6dd5" d="M 359.5,372.5 C 359.389,373.117 359.056,373.617 358.5,374C 337.833,374.333 317.167,374.667 296.5,375C 294.229,377.782 291.563,379.949 288.5,381.5C 290.833,378.833 293.167,376.167 295.5,373.5C 316.879,373.811 338.212,373.478 359.5,372.5 Z"/></g>
<g><path style="opacity:1" fill="#5770ee" d="M 145.5,369.5 C 149.077,370.901 152.744,372.068 156.5,373C 176.497,373.5 196.497,373.667 216.5,373.5C 218.19,373.856 219.19,374.856 219.5,376.5C 219.5,377.833 219.5,379.167 219.5,380.5C 220.5,380.5 221.5,380.5 222.5,380.5C 222.5,381.5 222.5,382.5 222.5,383.5C 220.473,383.662 218.473,383.495 216.5,383C 219.865,377.504 218.198,375.338 211.5,376.5C 206.959,377.064 202.459,377.397 198,377.5C 194.607,377.578 191.44,376.911 188.5,375.5C 184.305,375.776 180.138,375.776 176,375.5C 170.733,376.286 165.733,376.953 161,377.5C 159.759,375.579 158.259,375.246 156.5,376.5C 157.5,377.167 158.5,377.833 159.5,378.5C 158.833,378.833 158.167,379.167 157.5,379.5C 154.961,376.96 151.961,376.126 148.5,377C 147.052,379.701 145.385,379.534 143.5,376.5C 144.833,375.833 146.167,375.167 147.5,374.5C 146.05,373.15 145.383,371.484 145.5,369.5 Z"/></g>
<g><path style="opacity:1" fill="#5b6cd4" d="M 219.5,376.5 C 231.167,387.833 242.833,399.167 254.5,410.5C 254.833,411.167 255.167,411.833 255.5,412.5C 249.643,408.51 243.977,404.176 238.5,399.5C 237.095,397.345 235.762,395.179 234.5,393C 233.207,392.51 231.873,392.343 230.5,392.5C 230.657,391.127 230.49,389.793 230,388.5C 227.054,386.811 224.554,385.144 222.5,383.5C 222.5,382.5 222.5,381.5 222.5,380.5C 221.5,380.5 220.5,380.5 219.5,380.5C 219.5,379.167 219.5,377.833 219.5,376.5 Z"/></g>
<g><path style="opacity:1" fill="#6070d5" d="M 480.5,375.5 C 478.841,380.827 476.174,385.493 472.5,389.5C 472.821,388.183 473.154,386.849 473.5,385.5C 473.182,384.353 472.516,383.519 471.5,383C 472.793,382.51 474.127,382.343 475.5,382.5C 476.014,380.302 477.014,378.302 478.5,376.5C 478.957,375.702 479.624,375.369 480.5,375.5 Z"/></g>
<g><path style="opacity:1" fill="#6572ce" d="M 35.5,383.5 C 36.5,383.5 37.5,383.5 38.5,383.5C 40.4459,387.337 42.1125,391.337 43.5,395.5C 40.3504,391.881 37.6837,387.881 35.5,383.5 Z"/></g>
<g><path style="opacity:1" fill="#dde6fc" d="M 287.5,381.5 C 286.833,382.5 286.167,383.5 285.5,384.5C 278.833,390.833 272.167,397.167 265.5,403.5C 265.762,400.309 267.095,397.642 269.5,395.5C 275.395,391.56 280.395,386.727 284.5,381C 285.577,380.53 286.577,380.697 287.5,381.5 Z"/></g>
<g><path style="opacity:1" fill="#6374d6" d="M 472.5,390.5 C 468.733,396.38 464.733,402.046 460.5,407.5C 460.714,405.856 460.38,404.356 459.5,403C 460.448,402.517 461.448,402.351 462.5,402.5C 462.884,400.071 463.551,397.737 464.5,395.5C 465.978,395.762 467.311,395.429 468.5,394.5C 468.965,392.192 470.299,390.858 472.5,390.5 Z"/></g>
<g><path style="opacity:1" fill="#606ed5" d="M 43.5,396.5 C 44.675,396.281 45.675,396.614 46.5,397.5C 47.4963,399.816 49.1629,401.483 51.5,402.5C 52.154,404.115 52.654,405.782 53,407.5C 56.5048,408.503 58.0048,410.837 57.5,414.5C 52.4821,408.81 47.8154,402.81 43.5,396.5 Z"/></g>
<g><path style="opacity:1" fill="#5869cd" d="M 285.5,384.5 C 277.091,394.413 268.091,403.913 258.5,413C 257.251,413.74 256.251,413.573 255.5,412.5C 258.788,409.551 262.121,406.551 265.5,403.5C 272.167,397.167 278.833,390.833 285.5,384.5 Z"/></g>
<g><path style="opacity:1" fill="#5d70df" d="M 457.5,410.5 C 450.644,421.03 442.311,430.363 432.5,438.5C 429.946,433.183 431.946,430.35 438.5,430C 438.043,429.586 437.709,429.086 437.5,428.5C 440.015,427.8 440.682,426.467 439.5,424.5C 441.683,421.315 444.683,419.982 448.5,420.5C 447.769,418.401 447.769,416.401 448.5,414.5C 449.524,415.853 450.857,416.52 452.5,416.5C 452.019,412.651 453.686,410.651 457.5,410.5 Z"/></g>
<g><path style="opacity:1" fill="#6473c9" d="M 63.5,421.5 C 69.0938,426.756 74.7605,432.089 80.5,437.5C 81.6005,438.605 82.2671,439.938 82.5,441.5C 75.4639,435.465 69.1305,428.798 63.5,421.5 Z"/></g>
<g><path style="opacity:1" fill="#5e70df" d="M 432.5,438.5 C 426.108,445.525 419.108,451.859 411.5,457.5C 411.183,453.828 412.849,452.162 416.5,452.5C 415.948,450.669 415.948,449.003 416.5,447.5C 417.736,448.246 419.07,448.579 420.5,448.5C 420.34,446.801 420.506,445.134 421,443.5C 422.507,442.495 423.673,441.162 424.5,439.5C 425.086,439.709 425.586,440.043 426,440.5C 427.789,438.771 429.956,438.104 432.5,438.5 Z"/></g>
<g><path style="opacity:1" fill="#5f71e4" d="M 80.5,437.5 C 82.9976,438.912 85.6642,440.079 88.5,441C 87.8617,442.707 87.8617,444.54 88.5,446.5C 91.5184,446.335 94.5184,446.502 97.5,447C 98.9708,449.243 99.9708,451.743 100.5,454.5C 102.198,453.319 103.865,453.319 105.5,454.5C 106.478,455.801 106.145,456.968 104.5,458C 106.637,459.973 108.637,462.139 110.5,464.5C 100.422,457.787 91.0886,450.12 82.5,441.5C 82.2671,439.938 81.6005,438.605 80.5,437.5 Z"/></g>
<g><path style="opacity:1" fill="#6070da" d="M 410.5,457.5 C 403.916,463.906 396.583,469.406 388.5,474C 379.369,479.899 369.702,484.732 359.5,488.5C 361.386,485.769 364.053,484.269 367.5,484C 367.167,483.667 366.833,483.333 366.5,483C 368.167,482.667 369.833,482.333 371.5,482C 375.483,479.513 379.483,477.347 383.5,475.5C 383.343,474.127 383.51,472.793 384,471.5C 386.267,472.935 388.267,472.602 390,470.5C 390.17,468.285 390.837,466.285 392,464.5C 392.839,465.624 394.006,466.291 395.5,466.5C 397.841,465.102 400.175,463.769 402.5,462.5C 402.38,459.795 403.38,459.128 405.5,460.5C 406.739,458.993 406.405,457.826 404.5,457C 406.563,455.507 408.563,455.674 410.5,457.5 Z"/></g>
<g><path style="opacity:1" fill="#5c6ee0" d="M 127.5,475.5 C 121.314,472.578 115.648,468.911 110.5,464.5C 112.199,464.38 113.865,464.046 115.5,463.5C 116.851,464.366 117.684,465.366 118,466.5C 119.44,465.852 120.94,465.519 122.5,465.5C 122.318,467.591 122.652,469.591 123.5,471.5C 125.769,472.005 127.103,473.338 127.5,475.5 Z"/></g>
<g><path style="opacity:1" fill="#6272da" d="M 127.5,475.5 C 129.604,475.201 131.604,475.534 133.5,476.5C 138.355,481.169 144.022,483.335 150.5,483C 149.786,484.343 150.12,485.676 151.5,487C 154.679,487.752 157.346,489.252 159.5,491.5C 154.33,490.254 149.33,488.42 144.5,486C 138.434,482.976 132.768,479.476 127.5,475.5 Z"/></g>
<g><path style="opacity:1" fill="#707cd0" d="M 159.5,491.5 C 164.624,492.538 169.291,494.538 173.5,497.5C 168.311,496.446 163.644,494.446 159.5,491.5 Z"/></g>
<g><path style="opacity:1" fill="#5e6fd9" d="M 359.5,488.5 C 355.49,491.127 351.156,493.294 346.5,495C 338.615,497.686 330.615,499.852 322.5,501.5C 326.593,499.184 330.927,497.184 335.5,495.5C 338.107,494.682 340.774,494.182 343.5,494C 342.692,493.692 342.025,493.192 341.5,492.5C 347.364,490.707 353.364,489.374 359.5,488.5 Z"/></g>
<g><path style="opacity:1" fill="#6775cc" d="M 189.5,501.5 C 204.23,503.889 218.896,506.222 233.5,508.5C 233.5,508.833 233.5,509.167 233.5,509.5C 218.35,508.755 203.683,506.088 189.5,501.5 Z"/></g>
<g><path style="opacity:1" fill="#616fcb" d="M 311.5,504.5 C 285.867,510.023 259.867,511.689 233.5,509.5C 233.5,509.167 233.5,508.833 233.5,508.5C 248.837,508.667 264.17,508.5 279.5,508C 284.666,507.731 289.666,506.731 294.5,505C 300.157,504.501 305.824,504.334 311.5,504.5 Z"/></g>
</svg>
